<?xml version="1.0" encoding="UTF-8" standalone="no"?>
<!DOCTYPE svg PUBLIC "-//W3C//DTD SVG 1.1//EN"
 "http://www.w3.org/Graphics/SVG/1.1/DTD/svg11.dtd">
<!-- Generated by graphviz version 12.2.1 (20241206.2353)
 -->
<!-- Pages: 1 -->
<svg width="198pt" height="45pt"
 viewBox="0.00 0.00 197.50 45.00" xmlns="http://www.w3.org/2000/svg" xmlns:xlink="http://www.w3.org/1999/xlink">
<g id="graph0" class="graph" transform="scale(1 1) rotate(0) translate(4 41)">
<!-- n -->
<g id="node1" class="node">
<title>n</title>
<polygon fill="none" stroke="white" points="0,-0.5 0,-36.5 189.5,-36.5 189.5,-0.5 0,-0.5"/>
<text text-anchor="middle" x="11.38" y="-13.7" font-family="Times,serif" font-size="14.00" fill="white">1</text>
<polyline fill="none" stroke="white" points="22.75,-1 22.75,-36.5"/>
<text text-anchor="middle" x="34.12" y="-13.7" font-family="Times,serif" font-size="14.00" fill="white">2</text>
<polyline fill="none" stroke="white" points="45.5,-1 45.5,-36.5"/>
<text text-anchor="middle" x="56.88" y="-13.7" font-family="Times,serif" font-size="14.00" fill="white">3</text>
<polyline fill="none" stroke="white" points="68.25,-1 68.25,-36.5"/>
<text text-anchor="middle" x="79.62" y="-13.7" font-family="Times,serif" font-size="14.00" fill="white">4</text>
<polyline fill="none" stroke="white" points="91,-1 91,-36.5"/>
<text text-anchor="middle" x="104.62" y="-13.7" font-family="Times,serif" font-size="14.00" fill="white">...</text>
<polyline fill="none" stroke="white" points="118.25,-1 118.25,-36.5"/>
<text text-anchor="middle" x="128.12" y="-13.7" font-family="Times,serif" font-size="14.00" fill="white">t</text>
<polyline fill="none" stroke="white" points="138,-1 138,-36.5"/>
<text text-anchor="middle" x="151.62" y="-13.7" font-family="Times,serif" font-size="14.00" fill="white">...</text>
<polyline fill="none" stroke="white" points="165.25,-1 165.25,-36.5"/>
<text text-anchor="middle" x="177.38" y="-13.7" font-family="Times,serif" font-size="14.00" fill="white">T</text>
</g>
</g>
</svg>
