<?xml version="1.0" encoding="UTF-8" standalone="no"?>
<!DOCTYPE svg PUBLIC "-//W3C//DTD SVG 1.1//EN"
 "http://www.w3.org/Graphics/SVG/1.1/DTD/svg11.dtd">
<!-- Generated by graphviz version 12.2.1 (20241206.2353)
 -->
<!-- Pages: 1 -->
<svg width="460pt" height="44pt"
 viewBox="0.00 0.00 460.00 44.00" xmlns="http://www.w3.org/2000/svg" xmlns:xlink="http://www.w3.org/1999/xlink">
<g id="graph0" class="graph" transform="scale(1 1) rotate(0) translate(4 40)">
<!-- Lexical Spec -->
<g id="node1" class="node">
<title>Lexical Spec</title>
<polygon fill="none" stroke="white" points="86.5,-36 0,-36 0,0 86.5,0 86.5,-36"/>
<text text-anchor="middle" x="43.25" y="-12.95" font-family="Times,serif" font-size="14.00" fill="white">Lexical Spec</text>
</g>
<!-- RegExp -->
<g id="node2" class="node">
<title>RegExp</title>
<polygon fill="none" stroke="white" points="182,-36 122.5,-36 122.5,0 182,0 182,-36"/>
<text text-anchor="middle" x="152.25" y="-12.95" font-family="Times,serif" font-size="14.00" fill="white">RegExp</text>
</g>
<!-- Lexical Spec&#45;&gt;RegExp -->
<g id="edge1" class="edge">
<title>Lexical Spec&#45;&gt;RegExp</title>
<path fill="none" stroke="white" d="M86.85,-18C94.74,-18 102.97,-18 110.8,-18"/>
<polygon fill="white" stroke="white" points="110.77,-21.5 120.77,-18 110.77,-14.5 110.77,-21.5"/>
</g>
<!-- NFA -->
<g id="node3" class="node">
<title>NFA</title>
<polygon fill="none" stroke="white" points="272,-36 218,-36 218,0 272,0 272,-36"/>
<text text-anchor="middle" x="245" y="-12.95" font-family="Times,serif" font-size="14.00" fill="white">NFA</text>
</g>
<!-- RegExp&#45;&gt;NFA -->
<g id="edge2" class="edge">
<title>RegExp&#45;&gt;NFA</title>
<path fill="none" stroke="white" d="M182.46,-18C190.05,-18 198.34,-18 206.29,-18"/>
<polygon fill="white" stroke="white" points="206.09,-21.5 216.09,-18 206.09,-14.5 206.09,-21.5"/>
</g>
<!-- DFA -->
<g id="node4" class="node">
<title>DFA</title>
<polygon fill="none" stroke="white" points="362,-36 308,-36 308,0 362,0 362,-36"/>
<text text-anchor="middle" x="335" y="-12.95" font-family="Times,serif" font-size="14.00" fill="white">DFA</text>
</g>
<!-- NFA&#45;&gt;DFA -->
<g id="edge3" class="edge">
<title>NFA&#45;&gt;DFA</title>
<path fill="none" stroke="white" d="M272.4,-18C279.89,-18 288.18,-18 296.2,-18"/>
<polygon fill="white" stroke="white" points="296.1,-21.5 306.1,-18 296.1,-14.5 296.1,-21.5"/>
</g>
<!-- Tables -->
<g id="node5" class="node">
<title>Tables</title>
<polygon fill="none" stroke="white" points="452,-36 398,-36 398,0 452,0 452,-36"/>
<text text-anchor="middle" x="425" y="-12.95" font-family="Times,serif" font-size="14.00" fill="white">Tables</text>
</g>
<!-- DFA&#45;&gt;Tables -->
<g id="edge4" class="edge">
<title>DFA&#45;&gt;Tables</title>
<path fill="none" stroke="white" d="M362.4,-18C369.89,-18 378.18,-18 386.2,-18"/>
<polygon fill="white" stroke="white" points="386.1,-21.5 396.1,-18 386.1,-14.5 386.1,-21.5"/>
</g>
</g>
</svg>
