<?xml version="1.0" encoding="UTF-8" standalone="no"?>
<!DOCTYPE svg PUBLIC "-//W3C//DTD SVG 1.1//EN"
 "http://www.w3.org/Graphics/SVG/1.1/DTD/svg11.dtd">
<!-- Generated by graphviz version 12.2.1 (20241206.2353)
 -->
<!-- Pages: 1 -->
<svg width="113pt" height="216pt"
 viewBox="0.00 0.00 112.75 216.00" xmlns="http://www.w3.org/2000/svg" xmlns:xlink="http://www.w3.org/1999/xlink">
<g id="graph0" class="graph" transform="scale(1 1) rotate(0) translate(4 212)">
<!-- obj -->
<g id="node1" class="node">
<title>obj</title>
<polygon fill="none" stroke="white" points="0,-158.5 0,-207.5 68.25,-207.5 68.25,-158.5 0,-158.5"/>
<text text-anchor="middle" x="11.88" y="-190.2" font-family="Times,serif" font-size="14.00" fill="white">x</text>
<polyline fill="none" stroke="white" points="23.75,-183 23.75,-207.5"/>
<text text-anchor="middle" x="35.62" y="-190.2" font-family="Times,serif" font-size="14.00" fill="white">y</text>
<polyline fill="none" stroke="white" points="47.5,-183 47.5,-207.5"/>
<text text-anchor="middle" x="57.88" y="-190.2" font-family="Times,serif" font-size="14.00" fill="white"> </text>
<polyline fill="none" stroke="white" points="0,-183 68.25,-183"/>
<text text-anchor="middle" x="11.38" y="-165.7" font-family="Times,serif" font-size="14.00" fill="white">0</text>
<polyline fill="none" stroke="white" points="22.75,-158.5 22.75,-183"/>
<text text-anchor="middle" x="34.12" y="-165.7" font-family="Times,serif" font-size="14.00" fill="white">0</text>
<polyline fill="none" stroke="white" points="45.5,-158.5 45.5,-183"/>
<text text-anchor="middle" x="56.88" y="-165.7" font-family="Times,serif" font-size="14.00" fill="white">*</text>
</g>
<!-- methods -->
<g id="node2" class="node">
<title>methods</title>
<polygon fill="none" stroke="white" points="4.88,-72.5 4.88,-121.5 67.38,-121.5 67.38,-72.5 4.88,-72.5"/>
<text text-anchor="middle" x="36.12" y="-104.2" font-family="Times,serif" font-size="14.00" fill="white">methods</text>
<polyline fill="none" stroke="white" points="4.88,-97 67.38,-97"/>
<text text-anchor="middle" x="36.12" y="-79.7" font-family="Times,serif" font-size="14.00" fill="white">*</text>
</g>
<!-- obj&#45;&gt;methods -->
<g id="edge1" class="edge">
<title>obj:e&#45;&gt;methods:e</title>
<path fill="none" stroke="white" d="M69.25,-170.75C97.93,-170.75 100.85,-114.29 79.17,-100.17"/>
<polygon fill="white" stroke="white" points="80.41,-96.89 69.83,-97.43 78.44,-103.6 80.41,-96.89"/>
</g>
<!-- movePoint -->
<g id="node3" class="node">
<title>movePoint</title>
<text text-anchor="middle" x="67.12" y="-12.95" font-family="Times,serif" font-size="14.00" fill="white">movePoint</text>
</g>
<!-- methods&#45;&gt;movePoint -->
<g id="edge2" class="edge">
<title>methods:e&#45;&gt;movePoint</title>
<path fill="none" stroke="white" d="M68.38,-97C89.11,-97 84.6,-69.09 77.61,-46.66"/>
<polygon fill="white" stroke="white" points="80.99,-45.71 74.46,-37.36 74.36,-47.95 80.99,-45.71"/>
</g>
</g>
</svg>
