<?xml version="1.0" encoding="UTF-8" standalone="no"?>
<!DOCTYPE svg PUBLIC "-//W3C//DTD SVG 1.1//EN"
 "http://www.w3.org/Graphics/SVG/1.1/DTD/svg11.dtd">
<!-- Generated by graphviz version 12.2.1 (20241206.2353)
 -->
<!-- Pages: 1 -->
<svg width="435pt" height="62pt"
 viewBox="0.00 0.00 435.00 62.00" xmlns="http://www.w3.org/2000/svg" xmlns:xlink="http://www.w3.org/1999/xlink">
<g id="graph0" class="graph" transform="scale(1 1) rotate(0) translate(4 58)">
<!-- ir1 -->
<g id="node1" class="node">
<title>ir1</title>
<text text-anchor="middle" x="297" y="-12.95" font-family="Times,serif" font-size="14.00" fill="white">ir</text>
</g>
<!-- ir1&#45;&gt;ir1 -->
<g id="edge4" class="edge">
<title>ir1&#45;&gt;ir1</title>
<path fill="none" stroke="white" d="M280.82,-35.78C278.07,-45.31 283.46,-54 297,-54 304.61,-54 309.65,-51.25 312.11,-47.15"/>
<polygon fill="white" stroke="white" points="315.59,-47.57 313.04,-37.29 308.62,-46.92 315.59,-47.57"/>
</g>
<!-- assembly -->
<g id="node5" class="node">
<title>assembly</title>
<text text-anchor="middle" x="393.5" y="-12.95" font-family="Times,serif" font-size="14.00" fill="white">assembly</text>
</g>
<!-- ir1&#45;&gt;assembly -->
<g id="edge5" class="edge">
<title>ir1&#45;&gt;assembly</title>
<path fill="none" stroke="white" d="M323.82,-18C331.56,-18 340.27,-18 348.83,-18"/>
<polygon fill="white" stroke="white" points="348.78,-21.5 358.78,-18 348.78,-14.5 348.78,-21.5"/>
</g>
<!-- source -->
<g id="node2" class="node">
<title>source</title>
<text text-anchor="middle" x="27" y="-12.95" font-family="Times,serif" font-size="14.00" fill="white">source</text>
</g>
<!-- ir -->
<g id="node3" class="node">
<title>ir</title>
<text text-anchor="middle" x="117" y="-12.95" font-family="Times,serif" font-size="14.00" fill="white">ir</text>
</g>
<!-- source&#45;&gt;ir -->
<g id="edge1" class="edge">
<title>source&#45;&gt;ir</title>
<path fill="none" stroke="white" d="M53.93,-18C61.71,-18 70.42,-18 78.78,-18"/>
<polygon fill="white" stroke="white" points="78.74,-21.5 88.74,-18 78.74,-14.5 78.74,-21.5"/>
</g>
<!-- ... -->
<g id="node4" class="node">
<title>...</title>
<text text-anchor="middle" x="207" y="-12.95" font-family="Times,serif" font-size="14.00" fill="white">...</text>
</g>
<!-- ir&#45;&gt;... -->
<g id="edge2" class="edge">
<title>ir&#45;&gt;...</title>
<path fill="none" stroke="white" d="M143.93,-18C151.71,-18 160.42,-18 168.78,-18"/>
<polygon fill="white" stroke="white" points="168.74,-21.5 178.74,-18 168.74,-14.5 168.74,-21.5"/>
</g>
<!-- ...&#45;&gt;ir1 -->
<g id="edge3" class="edge">
<title>...&#45;&gt;ir1</title>
<path fill="none" stroke="white" d="M233.93,-18C241.71,-18 250.42,-18 258.78,-18"/>
<polygon fill="white" stroke="white" points="258.74,-21.5 268.74,-18 258.74,-14.5 258.74,-21.5"/>
</g>
</g>
</svg>
