<?xml version="1.0" encoding="UTF-8" standalone="no"?>
<!DOCTYPE svg PUBLIC "-//W3C//DTD SVG 1.1//EN"
 "http://www.w3.org/Graphics/SVG/1.1/DTD/svg11.dtd">
<!-- Generated by graphviz version 12.2.1 (20241206.2353)
 -->
<!-- Pages: 1 -->
<svg width="494pt" height="260pt"
 viewBox="0.00 0.00 494.00 260.00" xmlns="http://www.w3.org/2000/svg" xmlns:xlink="http://www.w3.org/1999/xlink">
<g id="graph0" class="graph" transform="scale(1 1) rotate(0) translate(4 256)">
<!-- assign1 -->
<g id="node1" class="node">
<title>assign1</title>
<text text-anchor="middle" x="387" y="-156.95" font-family="Times,serif" font-size="14.00" fill="white">assign</text>
</g>
<!-- then&#45;stmt -->
<g id="node12" class="node">
<title>then&#45;stmt</title>
<text text-anchor="middle" x="358" y="-84.95" font-family="Times,serif" font-size="14.00" fill="white">then&#45;stmt</text>
</g>
<!-- assign1&#45;&gt;then&#45;stmt -->
<g id="edge7" class="edge">
<title>assign1&#45;&gt;then&#45;stmt</title>
<path fill="none" stroke="white" d="M379.98,-144.05C376.77,-136.32 372.9,-126.96 369.3,-118.27"/>
<polygon fill="white" stroke="white" points="372.6,-117.09 365.53,-109.19 366.13,-119.77 372.6,-117.09"/>
</g>
<!-- assign2 -->
<g id="node2" class="node">
<title>assign2</title>
<text text-anchor="middle" x="258" y="-156.95" font-family="Times,serif" font-size="14.00" fill="white">assign</text>
</g>
<!-- else&#45;stmt -->
<g id="node13" class="node">
<title>else&#45;stmt</title>
<text text-anchor="middle" x="258" y="-84.95" font-family="Times,serif" font-size="14.00" fill="white">else&#45;stmt</text>
</g>
<!-- assign2&#45;&gt;else&#45;stmt -->
<g id="edge10" class="edge">
<title>assign2&#45;&gt;else&#45;stmt</title>
<path fill="none" stroke="white" d="M258,-144.05C258,-136.57 258,-127.58 258,-119.14"/>
<polygon fill="white" stroke="white" points="261.5,-119.3 258,-109.3 254.5,-119.3 261.5,-119.3"/>
</g>
<!-- z1 -->
<g id="node3" class="node">
<title>z1</title>
<text text-anchor="middle" x="387" y="-228.95" font-family="Times,serif" font-size="14.00" fill="white">z</text>
</g>
<!-- z1&#45;&gt;assign1 -->
<g id="edge5" class="edge">
<title>z1&#45;&gt;assign1</title>
<path fill="none" stroke="white" d="M387,-216.05C387,-208.57 387,-199.58 387,-191.14"/>
<polygon fill="white" stroke="white" points="390.5,-191.3 387,-181.3 383.5,-191.3 390.5,-191.3"/>
</g>
<!-- z2 -->
<g id="node4" class="node">
<title>z2</title>
<text text-anchor="middle" x="243" y="-228.95" font-family="Times,serif" font-size="14.00" fill="white">z</text>
</g>
<!-- z2&#45;&gt;assign2 -->
<g id="edge8" class="edge">
<title>z2&#45;&gt;assign2</title>
<path fill="none" stroke="white" d="M246.63,-216.05C248.25,-208.49 250.21,-199.37 252.03,-190.85"/>
<polygon fill="white" stroke="white" points="255.41,-191.78 254.09,-181.27 248.57,-190.31 255.41,-191.78"/>
</g>
<!-- x -->
<g id="node5" class="node">
<title>x</title>
<text text-anchor="middle" x="27" y="-228.95" font-family="Times,serif" font-size="14.00" fill="white">x</text>
</g>
<!-- relation -->
<g id="node10" class="node">
<title>relation</title>
<text text-anchor="middle" x="129" y="-156.95" font-family="Times,serif" font-size="14.00" fill="white">relation</text>
</g>
<!-- x&#45;&gt;relation -->
<g id="edge1" class="edge">
<title>x&#45;&gt;relation</title>
<path fill="none" stroke="white" d="M51.69,-216.05C64.72,-207.11 80.91,-196.01 95.1,-186.27"/>
<polygon fill="white" stroke="white" points="97.02,-189.19 103.29,-180.65 93.06,-183.42 97.02,-189.19"/>
</g>
<!-- y -->
<g id="node6" class="node">
<title>y</title>
<text text-anchor="middle" x="99" y="-228.95" font-family="Times,serif" font-size="14.00" fill="white">y</text>
</g>
<!-- y&#45;&gt;relation -->
<g id="edge2" class="edge">
<title>y&#45;&gt;relation</title>
<path fill="none" stroke="white" d="M106.26,-216.05C109.58,-208.32 113.59,-198.96 117.31,-190.27"/>
<polygon fill="white" stroke="white" points="120.49,-191.75 121.21,-181.18 114.05,-188.99 120.49,-191.75"/>
</g>
<!-- eq -->
<g id="node7" class="node">
<title>eq</title>
<text text-anchor="middle" x="171" y="-228.95" font-family="Times,serif" font-size="14.00" fill="white">==</text>
</g>
<!-- eq&#45;&gt;relation -->
<g id="edge3" class="edge">
<title>eq&#45;&gt;relation</title>
<path fill="none" stroke="white" d="M160.83,-216.05C156.04,-208.06 150.2,-198.33 144.84,-189.4"/>
<polygon fill="white" stroke="white" points="148,-187.86 139.85,-181.09 142,-191.46 148,-187.86"/>
</g>
<!-- 2 -->
<g id="node8" class="node">
<title>2</title>
<text text-anchor="middle" x="315" y="-228.95" font-family="Times,serif" font-size="14.00" fill="white">==</text>
</g>
<!-- 2&#45;&gt;assign2 -->
<g id="edge9" class="edge">
<title>2&#45;&gt;assign2</title>
<path fill="none" stroke="white" d="M301.2,-216.05C294.48,-207.8 286.26,-197.7 278.8,-188.54"/>
<polygon fill="white" stroke="white" points="281.66,-186.51 272.63,-180.96 276.23,-190.93 281.66,-186.51"/>
</g>
<!-- 1 -->
<g id="node9" class="node">
<title>1</title>
<text text-anchor="middle" x="459" y="-228.95" font-family="Times,serif" font-size="14.00" fill="white">==</text>
</g>
<!-- 1&#45;&gt;assign1 -->
<g id="edge6" class="edge">
<title>1&#45;&gt;assign1</title>
<path fill="none" stroke="white" d="M441.57,-216.05C432.82,-207.54 422.04,-197.07 412.39,-187.68"/>
<polygon fill="white" stroke="white" points="414.96,-185.31 405.35,-180.84 410.08,-190.32 414.96,-185.31"/>
</g>
<!-- predicate -->
<g id="node11" class="node">
<title>predicate</title>
<text text-anchor="middle" x="159" y="-84.95" font-family="Times,serif" font-size="14.00" fill="white">predicate</text>
</g>
<!-- relation&#45;&gt;predicate -->
<g id="edge4" class="edge">
<title>relation&#45;&gt;predicate</title>
<path fill="none" stroke="white" d="M136.26,-144.05C139.58,-136.32 143.59,-126.96 147.31,-118.27"/>
<polygon fill="white" stroke="white" points="150.49,-119.75 151.21,-109.18 144.05,-116.99 150.49,-119.75"/>
</g>
<!-- if&#45;the&#45;else -->
<g id="node14" class="node">
<title>if&#45;the&#45;else</title>
<text text-anchor="middle" x="258" y="-12.95" font-family="Times,serif" font-size="14.00" fill="white">if&#45;the&#45;else</text>
</g>
<!-- predicate&#45;&gt;if&#45;the&#45;else -->
<g id="edge11" class="edge">
<title>predicate&#45;&gt;if&#45;the&#45;else</title>
<path fill="none" stroke="white" d="M182.97,-72.05C195.61,-63.11 211.32,-52.01 225.09,-42.27"/>
<polygon fill="white" stroke="white" points="226.88,-45.29 233.02,-36.66 222.83,-39.58 226.88,-45.29"/>
</g>
<!-- then&#45;stmt&#45;&gt;if&#45;the&#45;else -->
<g id="edge12" class="edge">
<title>then&#45;stmt&#45;&gt;if&#45;the&#45;else</title>
<path fill="none" stroke="white" d="M333.79,-72.05C321.02,-63.11 305.15,-52.01 291.24,-42.27"/>
<polygon fill="white" stroke="white" points="293.42,-39.52 283.22,-36.66 289.41,-45.26 293.42,-39.52"/>
</g>
<!-- else&#45;stmt&#45;&gt;if&#45;the&#45;else -->
<g id="edge13" class="edge">
<title>else&#45;stmt&#45;&gt;if&#45;the&#45;else</title>
<path fill="none" stroke="white" d="M258,-72.05C258,-64.57 258,-55.58 258,-47.14"/>
<polygon fill="white" stroke="white" points="261.5,-47.3 258,-37.3 254.5,-47.3 261.5,-47.3"/>
</g>
</g>
</svg>
