<?xml version="1.0" encoding="UTF-8" standalone="no"?>
<!DOCTYPE svg PUBLIC "-//W3C//DTD SVG 1.1//EN"
 "http://www.w3.org/Graphics/SVG/1.1/DTD/svg11.dtd">
<!-- Generated by graphviz version 12.2.1 (20241206.2353)
 -->
<!-- Pages: 1 -->
<svg width="242pt" height="188pt"
 viewBox="0.00 0.00 242.00 188.00" xmlns="http://www.w3.org/2000/svg" xmlns:xlink="http://www.w3.org/1999/xlink">
<g id="graph0" class="graph" transform="scale(1 1) rotate(0) translate(4 184)">
<!-- INT1 -->
<g id="node1" class="node">
<title>INT1</title>
<text text-anchor="middle" x="27" y="-84.95" font-family="Times,serif" font-size="14.00" fill="white">INT</text>
</g>
<!-- INT2 -->
<g id="node2" class="node">
<title>INT2</title>
<text text-anchor="middle" x="99" y="-84.95" font-family="Times,serif" font-size="14.00" fill="white">INT</text>
</g>
<!-- ID1 -->
<g id="node3" class="node">
<title>ID1</title>
<text text-anchor="middle" x="135" y="-12.95" font-family="Times,serif" font-size="14.00" fill="white">ID</text>
</g>
<!-- ID2 -->
<g id="node4" class="node">
<title>ID2</title>
<text text-anchor="middle" x="207" y="-12.95" font-family="Times,serif" font-size="14.00" fill="white">ID</text>
</g>
<!-- IF&#45;THEN&#45;ELSE -->
<g id="node5" class="node">
<title>IF&#45;THEN&#45;ELSE</title>
<text text-anchor="middle" x="99" y="-156.95" font-family="Times,serif" font-size="14.00" fill="white">IF&#45;THEN&#45;ELSE</text>
</g>
<!-- IF&#45;THEN&#45;ELSE&#45;&gt;INT1 -->
<g id="edge1" class="edge">
<title>IF&#45;THEN&#45;ELSE&#45;&gt;INT1</title>
<path fill="none" stroke="white" d="M81.57,-144.05C72.82,-135.54 62.04,-125.07 52.39,-115.68"/>
<polygon fill="white" stroke="white" points="54.96,-113.31 45.35,-108.84 50.08,-118.32 54.96,-113.31"/>
</g>
<!-- IF&#45;THEN&#45;ELSE&#45;&gt;INT2 -->
<g id="edge2" class="edge">
<title>IF&#45;THEN&#45;ELSE&#45;&gt;INT2</title>
<path fill="none" stroke="white" d="M99,-144.05C99,-136.57 99,-127.58 99,-119.14"/>
<polygon fill="white" stroke="white" points="102.5,-119.3 99,-109.3 95.5,-119.3 102.5,-119.3"/>
</g>
<!-- = -->
<g id="node6" class="node">
<title>=</title>
<text text-anchor="middle" x="171" y="-84.95" font-family="Times,serif" font-size="14.00" fill="white">=</text>
</g>
<!-- IF&#45;THEN&#45;ELSE&#45;&gt;= -->
<g id="edge3" class="edge">
<title>IF&#45;THEN&#45;ELSE&#45;&gt;=</title>
<path fill="none" stroke="white" d="M116.43,-144.05C125.18,-135.54 135.96,-125.07 145.61,-115.68"/>
<polygon fill="white" stroke="white" points="147.92,-118.32 152.65,-108.84 143.04,-113.31 147.92,-118.32"/>
</g>
<!-- =&#45;&gt;ID1 -->
<g id="edge4" class="edge">
<title>=&#45;&gt;ID1</title>
<path fill="none" stroke="white" d="M162.29,-72.05C158.26,-64.23 153.38,-54.75 148.87,-45.98"/>
<polygon fill="white" stroke="white" points="152.01,-44.43 144.33,-37.13 145.79,-47.63 152.01,-44.43"/>
</g>
<!-- =&#45;&gt;ID2 -->
<g id="edge5" class="edge">
<title>=&#45;&gt;ID2</title>
<path fill="none" stroke="white" d="M179.71,-72.05C183.74,-64.23 188.62,-54.75 193.13,-45.98"/>
<polygon fill="white" stroke="white" points="196.21,-47.63 197.67,-37.13 189.99,-44.43 196.21,-47.63"/>
</g>
</g>
</svg>
