<?xml version="1.0" encoding="UTF-8" standalone="no"?>
<!DOCTYPE svg PUBLIC "-//W3C//DTD SVG 1.1//EN"
 "http://www.w3.org/Graphics/SVG/1.1/DTD/svg11.dtd">
<!-- Generated by graphviz version 12.2.1 (20241206.2353)
 -->
<!-- Pages: 1 -->
<svg width="188pt" height="336pt"
 viewBox="0.00 0.00 188.04 336.00" xmlns="http://www.w3.org/2000/svg" xmlns:xlink="http://www.w3.org/1999/xlink">
<g id="graph0" class="graph" transform="scale(1 1) rotate(0) translate(4 332)">
<!-- observation -->
<g id="node1" class="node">
<title>observation</title>
<polygon fill="none" stroke="white" points="130.01,-255 51.01,-255 51.01,-219 130.01,-219 130.01,-255"/>
<text text-anchor="middle" x="90.51" y="-231.95" font-family="Times,serif" font-size="14.00" fill="white">observation</text>
</g>
<!-- belief2 -->
<g id="node4" class="node">
<title>belief2</title>
<ellipse fill="none" stroke="white" cx="54.51" cy="-164" rx="36.51" ry="18"/>
<text text-anchor="middle" x="54.51" y="-158.95" font-family="Times,serif" font-size="14.00" fill="white">belief2</text>
</g>
<!-- observation&#45;&gt;belief2 -->
<g id="edge2" class="edge">
<title>observation&#45;&gt;belief2</title>
<path fill="none" stroke="white" d="M81.79,-218.81C77.67,-210.67 72.64,-200.76 68.03,-191.67"/>
<polygon fill="white" stroke="white" points="71.22,-190.23 63.58,-182.89 64.98,-193.39 71.22,-190.23"/>
</g>
<!-- dot -->
<g id="node2" class="node">
<title>dot</title>
<text text-anchor="middle" x="36.51" y="-12.95" font-family="Times,serif" font-size="14.00" fill="white">...</text>
</g>
<!-- belief1 -->
<g id="node3" class="node">
<title>belief1</title>
<ellipse fill="none" stroke="white" cx="90.51" cy="-310" rx="36.51" ry="18"/>
<text text-anchor="middle" x="90.51" y="-304.95" font-family="Times,serif" font-size="14.00" fill="white">belief1</text>
</g>
<!-- belief1&#45;&gt;observation -->
<g id="edge1" class="edge">
<title>belief1&#45;&gt;observation</title>
<path fill="none" stroke="white" d="M90.51,-291.81C90.51,-284.23 90.51,-275.1 90.51,-266.54"/>
<polygon fill="white" stroke="white" points="94.01,-266.54 90.51,-256.54 87.01,-266.54 94.01,-266.54"/>
</g>
<!-- belief3 -->
<g id="node5" class="node">
<title>belief3</title>
<ellipse fill="none" stroke="white" cx="36.51" cy="-91" rx="36.51" ry="18"/>
<text text-anchor="middle" x="36.51" y="-85.95" font-family="Times,serif" font-size="14.00" fill="white">belief3</text>
</g>
<!-- belief2&#45;&gt;belief3 -->
<g id="edge3" class="edge">
<title>belief2&#45;&gt;belief3</title>
<path fill="none" stroke="white" d="M50.15,-145.81C48.18,-138.05 45.81,-128.68 43.59,-119.95"/>
<polygon fill="white" stroke="white" points="47.05,-119.33 41.2,-110.5 40.26,-121.05 47.05,-119.33"/>
</g>
<!-- belief4 -->
<g id="node6" class="node">
<title>belief4</title>
<ellipse fill="none" stroke="white" cx="127.51" cy="-91" rx="36.51" ry="18"/>
<text text-anchor="middle" x="127.51" y="-85.95" font-family="Times,serif" font-size="14.00" fill="white">belief4</text>
</g>
<!-- belief2&#45;&gt;belief4 -->
<g id="edge4" class="edge">
<title>belief2&#45;&gt;belief4</title>
<path fill="none" stroke="white" d="M70.35,-147.59C79.94,-138.26 92.38,-126.17 103.2,-115.64"/>
<polygon fill="white" stroke="white" points="105.63,-118.16 110.36,-108.68 100.75,-113.14 105.63,-118.16"/>
</g>
<!-- belief3&#45;&gt;dot -->
<g id="edge6" class="edge">
<title>belief3&#45;&gt;dot</title>
<path fill="none" stroke="white" d="M36.51,-72.81C36.51,-65.03 36.51,-55.62 36.51,-46.86"/>
<polygon fill="white" stroke="white" points="40.01,-47.05 36.51,-37.05 33.01,-47.05 40.01,-47.05"/>
</g>
<!-- belief4&#45;&gt;observation -->
<g id="edge5" class="edge">
<title>belief4&#45;&gt;observation</title>
<path fill="none" stroke="white" d="M123.14,-108.98C116.89,-133.33 105.29,-178.46 97.74,-207.84"/>
<polygon fill="white" stroke="white" points="94.45,-206.61 95.35,-217.16 101.23,-208.35 94.45,-206.61"/>
<text text-anchor="middle" x="146.67" y="-158.95" font-family="Times,serif" font-size="14.00" fill="white">coherentism</text>
</g>
</g>
</svg>
